<svg width="48" height="48" viewBox="0 0 48 48" class="icon__vue icon__vue--book"><path d="M43.028 1.211A1.21 1.21 0 0 0 41.817 0H12.436C8.31 0 4.962 3.358 4.962 7.473v33.054C4.962 44.652 8.32 48 12.436 48h29.39a1.21 1.21 0 0 0 1.212-1.211V13.745a1.21 1.21 0 0 0-1.212-1.21h-29.39a5.072 5.072 0 0 1-5.061-5.062 5.072 5.072 0 0 1 5.06-5.06h29.391c.66 0 1.202-.542 1.202-1.202zM12.436 14.947h28.18v30.64h-28.18a5.072 5.072 0 0 1-5.061-5.06v-27.56a7.429 7.429 0 0 0 5.06 1.98z" fill="#1A237EFF"></path> <path d="M12.85 6.38a1.21 1.21 0 1 0 0 2.423h27.578a1.21 1.21 0 1 0 0-2.423H12.85z" fill="#1A237EFF"></path> <path d="M17.526 39.158a1.2 1.2 0 0 0 1.556-.699l1.762-4.608h6.174c.049 0 .088-.01.128-.01l1.762 4.618c.187.483.64.778 1.123.778.147 0 .285-.03.433-.079.62-.236.935-.935.699-1.555L25.846 23.7a1.969 1.969 0 0 0-1.851-1.28c-.827 0-1.556.502-1.851 1.28l-5.317 13.903c-.236.62.079 1.31.7 1.555zM23.995 25.6l2.235 5.839h-4.46l2.225-5.839z" fill="#BD8A59"></path></svg>
