<svg width="48" height="48" viewBox="0 0 48 48" class="icon__vue icon__vue--speechbubble"><defs><clipPath id="clip0e4r8g4"><path fill="#fff" d="M0 0h48v48H0z"></path></clipPath></defs> <g clip-path="url(#clip0e4r8g4)"><path d="M13.723 3.583c-2.441 0-4.43 1.99-4.43 4.43v17.624c0 2.44 1.989 4.43 4.43 4.43H33.58l5.597 6.48c.343.391.824.617 1.343.617.98 0 1.784-.794 1.784-1.774v-5.313h1.264c2.441 0 4.431-1.99 4.431-4.43V8.013c0-2.44-1.99-4.43-4.43-4.43H13.722zm31.866 4.43v17.624a2.033 2.033 0 0 1-2.03 2.029H41.1c-.666 0-1.205.539-1.205 1.206v4.832l-4.862-5.617a1.191 1.191 0 0 0-.911-.411H13.723a2.033 2.033 0 0 1-2.03-2.03V8.014c0-1.117.912-2.029 2.03-2.029H43.56c1.117 0 2.029.912 2.029 2.029z" fill="#1A237EFF"></path> <path d="M6.852 44.3a1.751 1.751 0 0 0 1.96-.5l5.597-6.48h17.486a1.205 1.205 0 1 0 0-2.41H13.86c-.353 0-.676.147-.912.411l-4.852 5.636v-4.832c0-.667-.539-1.206-1.205-1.206H4.43A2.033 2.033 0 0 1 2.4 32.89V15.266c0-1.117.912-2.029 2.03-2.029.666 0 1.205-.539 1.205-1.205 0-.667-.539-1.196-1.206-1.196-2.44 0-4.43 1.99-4.43 4.43V32.89c0 2.44 1.99 4.43 4.43 4.43h1.265v5.313c0 .755.45 1.412 1.157 1.667z" fill="#1A237EFF"></path> <path d="M28.641 18.677a1.431 1.431 0 1 0 0-2.862 1.431 1.431 0 0 0 0 2.862zM23.848 18.677a1.431 1.431 0 1 0 0-2.862 1.431 1.431 0 0 0 0 2.862zM33.434 18.677a1.431 1.431 0 1 0 0-2.862 1.431 1.431 0 0 0 0 2.862z" fill="#BD8A59"></path></g></svg>
