<svg width="49" height="48" viewBox="0 0 49 48" class="icon__vue icon__vue--credithistory"><path d="M14 7h15M14 13h29M14 19h13M30 19h13" fill="none" stroke="#1A237EFF" stroke-width="2"></path> <path fill="#1A237EFF" d="M12 2h33c1.1 0 2 .9 2 2v40c0 1.1-.9 2-2 2h-6v2h6c2.2 0 4-1.8 4-4V4c0-2.2-1.8-4-4-4H12C9.8 0 8 1.8 8 4v19h2V4c0-1.1.9-2 2-2z"></path> <path d="M4 26h29c1.7 0 3 1.3 3 3v15c0 1.7-1.3 3-3 3H4c-1.7 0-3-1.3-3-3V29c0-1.7 1.3-3 3-3z" fill="none" stroke="#BD8A59" stroke-width="2"></path> <path d="M8 32h3c.6 0 1 .4 1 1v2c0 .6-.4 1-1 1H8c-.6 0-1-.4-1-1v-2c0-.6.4-1 1-1zM6 41h5M13 41h5M20 41h5M27 41h5" fill="none" stroke="#BD8A59" stroke-width="2"></path></svg>
