<svg width="46" height="51" viewBox="0 0 46 51" class="icon__vue icon__vue--debtrestruct"><path fill="#1A237EFF" d="M4 2h38c1.1 0 2 .9 2 2v19h2V4c0-2.2-1.8-4-4-4H4C1.8 0 0 1.8 0 4v40c0 2.2 1.8 4 4 4h8v-2H4c-1.1 0-2-.9-2-2V4c0-1.1.9-2 2-2z"></path> <path d="M8 5h30c1.7 0 3 1.3 3 3v1c0 1.7-1.3 3-3 3H8c-1.7 0-3-1.3-3-3V8c0-1.7 1.3-3 3-3zM6 17h4c.6 0 1 .4 1 1v2c0 .6-.4 1-1 1H6c-.6 0-1-.4-1-1v-2c0-.6.4-1 1-1zM6 26h4c.6 0 1 .4 1 1v2c0 .6-.4 1-1 1H6c-.6 0-1-.4-1-1v-2c0-.6.4-1 1-1zM6 35h4c.6 0 1 .4 1 1v2c0 .6-.4 1-1 1H6c-.6 0-1-.4-1-1v-2c0-.6.4-1 1-1zM16 17h4c.6 0 1 .4 1 1v2c0 .6-.4 1-1 1h-4c-.6 0-1-.4-1-1v-2c0-.6.4-1 1-1zM26 17h4c.6 0 1 .4 1 1v2c0 .6-.4 1-1 1h-4c-.6 0-1-.4-1-1v-2c0-.6.4-1 1-1zM36 17h4c.6 0 1 .4 1 1v2c0 .6-.4 1-1 1h-4c-.6 0-1-.4-1-1v-2c0-.6.4-1 1-1z" fill="none" stroke="#1A237EFF" stroke-width="2"></path> <path d="M17 38h3.5M45 38H27.5" fill="none" stroke="#BD8A59" stroke-width="2" stroke-linecap="round"></path> <circle cx="24" cy="38" r="3" fill="none" stroke="#BD8A59" stroke-width="2"></circle> <path d="M17 30h14.5M45 30h-6.5" fill="none" stroke="#BD8A59" stroke-width="2" stroke-linecap="round"></path> <circle cx="35" cy="30" r="3" fill="none" stroke="#BD8A59" stroke-width="2"></circle> <path d="M45 47h-4m-24 0h17.4" fill="none" stroke="#BD8A59" stroke-width="2" stroke-linecap="round"></path> <circle cx="38" cy="47" r="3" fill="none" stroke="#BD8A59" stroke-width="2"></circle></svg>
