<svg width="48" height="48" viewBox="0 0 48 48" class="icon__vue icon__vue--coins"><path d="M36.283 20.03c5.542 0 9.717-2.154 9.717-5.015C46 12.155 41.825 10 36.283 10c-5.543 0-9.718 2.155-9.718 5.015s4.175 5.015 9.718 5.015zm0-7.876c4.621 0 7.572 1.699 7.572 2.87s-2.95 2.87-7.572 2.87-7.572-1.699-7.572-2.87 2.95-2.87 7.572-2.87zM45.187 20.129a1.073 1.073 0 0 0-1.377.634c-.456 1.243-3.46 2.584-7.519 2.584-3.95 0-6.91-1.27-7.482-2.494a1.079 1.079 0 0 0-1.43-.519c-.537.25-.77.894-.519 1.43 1.046 2.236 4.837 3.729 9.431 3.729 2.19 0 4.318-.358 6.008-1.02 1.86-.724 3.084-1.752 3.531-2.976a1.079 1.079 0 0 0-.643-1.368zM45.187 25.6a1.073 1.073 0 0 0-1.377.635c-.456 1.242-3.46 2.583-7.519 2.583-3.95 0-6.91-1.27-7.482-2.494a1.079 1.079 0 0 0-1.43-.519c-.537.25-.77.895-.519 1.43 1.046 2.236 4.837 3.729 9.431 3.729 2.19 0 4.318-.358 6.008-1.02 1.86-.723 3.084-1.752 3.531-2.976a1.079 1.079 0 0 0-.643-1.368zM45.187 31.062a1.073 1.073 0 0 0-1.377.634c-.456 1.243-3.46 2.584-7.519 2.584-3.95 0-6.91-1.27-7.482-2.494a1.079 1.079 0 0 0-1.43-.519c-.537.25-.77.894-.519 1.43 1.046 2.236 4.837 3.729 9.431 3.729 2.19 0 4.318-.358 6.008-1.02 1.86-.724 3.084-1.752 3.531-2.976a1.079 1.079 0 0 0-.643-1.368zM45.187 36.533a1.073 1.073 0 0 0-1.377.635c-.456 1.242-3.46 2.583-7.519 2.583-3.95 0-6.91-1.27-7.482-2.494a1.079 1.079 0 0 0-1.43-.518c-.537.25-.77.894-.519 1.43 1.046 2.235 4.837 3.728 9.431 3.728 2.19 0 4.318-.358 6.008-1.02 1.86-.723 3.084-1.752 3.531-2.976a1.072 1.072 0 0 0-.643-1.368zM45.187 41.995a1.073 1.073 0 0 0-1.377.635c-.456 1.242-3.46 2.584-7.519 2.584-3.95 0-6.91-1.27-7.482-2.495a1.079 1.079 0 0 0-1.43-.518c-.537.25-.77.894-.519 1.43 1.046 2.235 4.837 3.728 9.431 3.728 2.19 0 4.318-.358 6.008-1.02 1.86-.723 3.084-1.751 3.531-2.976a1.079 1.079 0 0 0-.643-1.368zM21.613 31.062a1.073 1.073 0 0 0-1.377.634c-.456 1.243-3.46 2.584-7.519 2.584-3.95 0-6.91-1.27-7.482-2.494a1.079 1.079 0 0 0-1.43-.519c-.537.25-.77.894-.519 1.43 1.046 2.236 4.836 3.729 9.431 3.729 2.19 0 4.318-.358 6.008-1.02 1.86-.724 3.084-1.752 3.531-2.976a1.079 1.079 0 0 0-.643-1.368zM21.613 36.533a1.073 1.073 0 0 0-1.377.635c-.456 1.242-3.46 2.583-7.519 2.583-3.95 0-6.91-1.27-7.482-2.494a1.079 1.079 0 0 0-1.43-.518c-.537.25-.77.894-.519 1.43 1.046 2.235 4.836 3.728 9.431 3.728 2.19 0 4.318-.358 6.008-1.02 1.86-.723 3.084-1.752 3.531-2.976a1.072 1.072 0 0 0-.643-1.368zM21.613 41.995a1.073 1.073 0 0 0-1.377.635c-.456 1.242-3.46 2.584-7.519 2.584-3.95 0-6.91-1.27-7.482-2.495a1.079 1.079 0 0 0-1.43-.518c-.537.25-.77.894-.519 1.43 1.046 2.235 4.836 3.728 9.431 3.728 2.19 0 4.318-.358 6.008-1.02 1.86-.723 3.084-1.751 3.531-2.976a1.079 1.079 0 0 0-.643-1.368zM12.717 20.933C7.175 20.933 3 23.088 3 25.948c0 2.861 4.175 5.015 9.717 5.015 5.543 0 9.718-2.154 9.718-5.015 0-2.86-4.175-5.015-9.717-5.015zm0 7.885c-4.621 0-7.571-1.699-7.571-2.87 0-1.17 2.95-2.87 7.571-2.87 4.622 0 7.572 1.7 7.572 2.87 0 1.171-2.95 2.87-7.572 2.87z" fill="#1A237EFF"></path> <path d="M11.102 13.984c0-1.039.128-1.867.386-2.484s.766-1.293 1.524-2.027c.765-.743 1.25-1.27 1.453-1.582.312-.477.469-.993.469-1.547 0-.735-.184-1.293-.551-1.676-.36-.39-.89-.586-1.594-.586-.672 0-1.215.191-1.629.574-.406.375-.61.887-.61 1.535H7.704c.016-1.382.484-2.476 1.406-3.28.93-.806 2.157-1.208 3.68-1.208 1.57 0 2.793.399 3.668 1.195.883.797 1.324 1.91 1.324 3.34 0 1.274-.593 2.528-1.781 3.762l-1.441 1.418c-.516.586-.782 1.441-.797 2.566h-2.66zm-.2 3.645c0-.461.145-.832.434-1.113.289-.29.68-.434 1.172-.434.5 0 .894.148 1.183.445.29.29.434.657.434 1.102 0 .43-.14.789-.422 1.078-.281.29-.68.434-1.195.434-.516 0-.914-.145-1.195-.434-.274-.289-.41-.648-.41-1.078z" fill="#BD8A59"></path></svg>
