<svg width="48" height="48" viewBox="0 0 48 48" class="icon__vue icon__vue--computer"><path d="M42.08 2.442H5.92A5.927 5.927 0 0 0 0 8.362v22.934c0 3.259 2.651 5.92 5.92 5.92h16.734v5.651h-8.342a1.34 1.34 0 0 0-1.345 1.346 1.34 1.34 0 0 0 1.345 1.345h19.376a1.34 1.34 0 0 0 1.345-1.345 1.34 1.34 0 0 0-1.345-1.346h-8.343v-5.651H42.08c3.259 0 5.92-2.651 5.92-5.92V8.362c0-3.269-2.651-5.92-5.92-5.92zM5.92 5.132h36.17a3.235 3.235 0 0 1 3.229 3.23l-.01 22.934H2.691V8.362a3.228 3.228 0 0 1 3.23-3.23zm36.16 29.393H5.92a3.235 3.235 0 0 1-3.229-3.23h42.618a3.235 3.235 0 0 1-3.23 3.23z" fill="#1A237EFF"></path> <path d="M13.444 31.64h.084a1.16 1.16 0 0 0 1.069-1.227c-.066-.882 0-2.41 1.116-2.7 4.453-1.116 6.196-2.588 6.871-3.704.385.075.788.122 1.21.132H24.028c.506-.01.985-.075 1.434-.188.694 1.125 2.447 2.653 6.844 3.76 1.116.28 1.181 1.809 1.116 2.7a1.147 1.147 0 0 0 1.069 1.228h.084c.6 0 1.106-.46 1.144-1.07.187-2.68-.872-4.584-2.85-5.08-3.394-.854-4.828-1.913-5.325-2.55.215-.178.431-.375.628-.591 2.203-2.475 1.866-6.656 1.819-7.134-.235-4.528-3.357-6.122-5.963-6.122h-.244c-2.606 0-5.728 1.603-5.953 6.112-.047.478-.375 4.65 1.819 7.135.234.271.497.506.769.712-.535.61-1.978 1.603-5.288 2.438-1.969.497-3.037 2.4-2.84 5.08.046.6.553 1.07 1.153 1.07zm6.675-16.227c0-.029 0-.047.01-.075.159-3.572 2.615-3.957 3.655-3.957h.244c1.05 0 3.497.385 3.656 3.957 0 .028 0 .046.01.075.103.984.094 3.88-1.256 5.4-.61.684-1.425 1.021-2.513 1.03h-.047c-1.078-.009-1.903-.346-2.512-1.03-1.332-1.5-1.35-4.407-1.247-5.4z" fill="#BD8A59"></path></svg>
